<?xml version="1.0" encoding="UTF-8"?>
<svg id="Layer_1" xmlns="http://www.w3.org/2000/svg" viewBox="0 0 302.64 67.79">
  <defs>
    <style>
      .cls-1 {
        fill: #fff;
      }

      .cls-2 {
        fill: #ffc843;
      }
    </style>
  </defs>
  <g>
    <path class="cls-2" d="M302.53,28.86c-15.8-8.86-52.55-12.49-103.51-10.21C144.03,21.1,75.27,30.14.18,44.78c-.12.02-.19.13-.17.25.02.11.11.18.21.18.01,0,.02,0,.03,0,22.79-3.45,92.15-13.95,157.79-19.69,74.23-6.49,122.78-5.24,144.3,3.72.1.05.23,0,.28-.11.05-.1.01-.23-.09-.28Z"/>
    <g>
      <g>
        <path class="cls-1" d="M156.93,21.56l6.72-15.82,6.18,14.73c1.38-.11,2.74-.21,4.1-.31L165.44.25h-3.5l-9.25,21.71c1.42-.13,2.83-.27,4.23-.4Z"/>
        <path class="cls-1" d="M150.9,26.16l-4.06,9.54h4.08l4.21-9.92c-1.41.13-2.82.25-4.23.38Z"/>
        <path class="cls-1" d="M171.47,24.41l4.73,11.29h4.34l-4.94-11.6c-1.37.1-2.74.2-4.13.31Z"/>
      </g>
      <g>
        <path class="cls-1" d="M262.45,19.44l5.81-13.69,6.35,15.14c1.56.23,3.08.47,4.55.73L270.06.25h-3.5l-8.03,18.85c1.33.1,2.63.22,3.92.34Z"/>
        <path class="cls-1" d="M257.36,21.85l-5.9,13.85h4.08l5.79-13.64c-1.3-.07-2.63-.14-3.98-.2Z"/>
        <path class="cls-1" d="M275.61,23.26l5.22,12.44h4.34l-5.06-11.87c-1.45-.2-2.95-.39-4.5-.57Z"/>
      </g>
      <path class="cls-1" d="M184.83,30.57l2.46-2.92c3.67,3.32,7.19,4.98,12.07,4.98s7.84-2.51,7.84-5.98v-.1c0-3.27-1.76-5.13-9.15-6.69-8.1-1.76-11.82-4.37-11.82-10.16v-.1c0-5.53,4.88-9.6,11.57-9.6,5.13,0,8.8,1.46,12.37,4.32l-2.31,3.07c-3.27-2.66-6.54-3.82-10.16-3.82-4.58,0-7.49,2.51-7.49,5.68v.1c0,3.32,1.81,5.18,9.55,6.84,7.84,1.71,11.46,4.58,11.46,9.96v.1c0,6.03-5.03,9.96-12.02,9.96-5.58,0-10.16-1.86-14.38-5.63Z"/>
      <path class="cls-1" d="M3.78.5h3.72l22.17,28.21V.5h3.87v35.2h-3.17L7.65,6.84v28.86h-3.87V.5Z"/>
      <path class="cls-1" d="M98.07,17.5c2.76-1.21,5.58-3.57,5.58-8.15v-.1c0-2.26-.8-4.12-2.26-5.63-2.01-1.96-5.18-3.12-9.2-3.12h-14.98v30.89c1.31-.2,2.62-.39,3.92-.59v-11.1h11.11c6.13,0,9.35,2.21,9.35,6.03v.1c0,3.3-2.37,5.47-6.28,6.09,0,0-.03.03-.03.03-.14.02-.27.04-.4.05-.02,0-.04,0-.06,0-6.04.73-11.91,1.62-17.61,2.36v1.32h15.64c7.69,0,12.77-3.57,12.77-9.6v-.1c0-4.83-3.37-7.24-7.54-8.5ZM91.53,16.19h-10.41V4.07h10.71c5.03,0,7.79,2.26,7.79,5.73v.1c0,4.12-3.32,6.28-8.1,6.28Z"/>
      <g>
        <path class="cls-1" d="M235.26,18.04h0l-1.71-2.15,15.08-15.39h-5.13l-20.21,21.02V.5h-3.97v35.2h3.97v-9.45l7.49-7.59.57-.62c1.4.02,2.55-.02,3.91,0Z"/>
        <path class="cls-1" d="M237.97,21.44c-1.69,0-3.78-.01-4.97,0l11.32,14.26h4.98l-11.33-14.26Z"/>
      </g>
      <g>
        <path class="cls-1" d="M136.5,27.56c-1.5.15-2.99.31-4.49.46l5.73,7.67h4.88l-6.12-8.14Z"/>
        <path class="cls-1" d="M129.33,24.44c1.49-.17,2.96-.34,4.44-.5l-1.97-2.62c5.53-1,9.55-4.42,9.55-10.26v-.1c0-2.77-1.01-5.23-2.71-6.94-2.21-2.21-5.68-3.52-10.01-3.52h-15.13v35.2h3.97v-13.68h10.06l1.8,2.41ZM117.48,4.17h10.86c5.68,0,9,2.61,9,6.94v.1c0,4.53-3.77,7.24-9.05,7.24h-10.81V4.17Z"/>
      </g>
      <path class="cls-1" d="M68.5,32.72v-.64h-21.72v-12.32h19.21v-3.62h-19.21V4.12h21.47V.5h-25.44v35.2h7.43c6.14-1.03,12.24-2.03,18.26-2.98Z"/>
    </g>
  </g>
  <g>
    <path class="cls-1" d="M132.95,62.6v-.03c0-2.87,2.26-5.21,5.37-5.21s5.34,2.32,5.34,5.19v.03c0,2.87-2.26,5.21-5.37,5.21s-5.34-2.32-5.34-5.19ZM141.35,62.6v-.03c0-1.73-1.27-3.17-3.05-3.17s-3.02,1.41-3.02,3.14v.03c0,1.73,1.27,3.17,3.05,3.17s3.03-1.41,3.03-3.14Z"/>
    <path class="cls-1" d="M146,57.53h7.68v2.02h-5.46v2.15h4.81v2.02h-4.81v3.9h-2.22v-10.08Z"/>
    <path class="cls-1" d="M155.81,57.53h7.68v2.02h-5.46v2.15h4.81v2.02h-4.81v3.9h-2.22v-10.08Z"/>
    <path class="cls-1" d="M165.72,57.53h2.22v10.08h-2.22v-10.08Z"/>
    <path class="cls-1" d="M170.37,62.6v-.03c0-2.87,2.16-5.21,5.26-5.21,1.9,0,3.04.63,3.97,1.56l-1.41,1.63c-.78-.71-1.57-1.14-2.58-1.14-1.7,0-2.92,1.41-2.92,3.14v.03c0,1.73,1.2,3.17,2.92,3.17,1.15,0,1.86-.46,2.65-1.18l1.41,1.43c-1.04,1.11-2.19,1.8-4.13,1.8-2.97,0-5.17-2.29-5.17-5.19Z"/>
    <path class="cls-1" d="M181.8,57.53h7.61v1.97h-5.4v2.04h4.75v1.97h-4.75v2.12h5.47v1.97h-7.68v-10.08Z"/>
    <path class="cls-1" d="M196.05,62.6v-.03c0-2.87,2.26-5.21,5.37-5.21s5.34,2.32,5.34,5.19v.03c0,2.87-2.26,5.21-5.37,5.21s-5.34-2.32-5.34-5.19ZM204.44,62.6v-.03c0-1.73-1.27-3.17-3.05-3.17s-3.03,1.41-3.03,3.14v.03c0,1.73,1.27,3.17,3.05,3.17s3.02-1.41,3.02-3.14Z"/>
    <path class="cls-1" d="M209.09,57.53h7.68v2.02h-5.46v2.15h4.81v2.02h-4.81v3.9h-2.22v-10.08Z"/>
    <path class="cls-1" d="M225.93,59.57h-3.07v-2.04h8.36v2.04h-3.07v8.04h-2.22v-8.04Z"/>
    <path class="cls-1" d="M233.27,57.53h2.22v3.99h4.09v-3.99h2.22v10.08h-2.22v-4.05h-4.09v4.05h-2.22v-10.08Z"/>
    <path class="cls-1" d="M244.58,57.53h7.61v1.97h-5.4v2.04h4.75v1.97h-4.75v2.12h5.47v1.97h-7.68v-10.08Z"/>
    <path class="cls-1" d="M258.82,62.6v-.03c0-2.87,2.16-5.21,5.26-5.21,1.9,0,3.04.63,3.97,1.56l-1.41,1.63c-.78-.71-1.57-1.14-2.58-1.14-1.7,0-2.92,1.41-2.92,3.14v.03c0,1.73,1.2,3.17,2.92,3.17,1.15,0,1.86-.46,2.65-1.18l1.41,1.43c-1.04,1.11-2.19,1.8-4.13,1.8-2.97,0-5.17-2.29-5.17-5.19Z"/>
    <path class="cls-1" d="M270.36,57.53h2.22v10.08h-2.22v-10.08Z"/>
    <path class="cls-1" d="M275.01,62.6v-.03c0-2.87,2.26-5.21,5.37-5.21s5.34,2.32,5.34,5.19v.03c0,2.87-2.26,5.21-5.37,5.21s-5.34-2.32-5.34-5.19ZM283.41,62.6v-.03c0-1.73-1.27-3.17-3.05-3.17s-3.03,1.41-3.03,3.14v.03c0,1.73,1.27,3.17,3.05,3.17s3.02-1.41,3.02-3.14Z"/>
  </g>
</svg>