<svg xmlns="http://www.w3.org/2000/svg" viewBox="0 0 400 470" width="600" height="705">

  <!-- Blue background circle for Umbraco logo -->
  <circle cx="200" cy="300" r="155" fill="#3544B1"/>

  <!-- Umbraco logo (white path with evenodd: U shape shows blue background through) -->
  <svg x="45" y="145" width="310" height="310" viewBox="0 0 315.89 315.89">
    <path fill="#fff" fill-rule="evenodd" d="M0 157.74a157.95 157.95 0 11158 158.15A157.95 157.95 0 010 157.74zm154.74 54.09a155.41 155.41 0 01-36.5-3.29 27.92 27.92 0 01-19.94-16q-5.35-12.34-5.21-38.1a243 243 0 011.69-26.84q1.55-13 3.09-21.46l1.07-5.59a2 2 0 000-.49 3.2 3.2 0 00-2.65-3.17l-20.37-3.22h-.44a3.19 3.19 0 00-3.11 2.48c-.35 1.31-.56 2.27-1.17 5.38-1.16 6-2.24 11.85-3.43 20.38a264.17 264.17 0 00-2.3 27.94 145.24 145.24 0 000 19.57q.72 25.94 8.9 41.42t27.72 22.3q19.53 6.81 54.43 6.66h2.91q34.94.15 54.41-6.66t27.71-22.3q8.17-15.53 8.91-41.42a145.24 145.24 0 000-19.57 266.84 266.84 0 00-2.3-27.94c-1.2-8.44-2.27-14.26-3.44-20.38-.61-3.11-.81-4.07-1.16-5.38a3.21 3.21 0 00-3.12-2.48h-.52l-20.38 3.18a3.2 3.2 0 00-2.68 3.17 4 4 0 000 .49l1.08 5.59q1.55 8.48 3.12 21.46a245.68 245.68 0 011.65 26.84q.27 25.69-5.21 38.07a27.9 27.9 0 01-19.76 16.07 155.19 155.19 0 01-36.48 3.29z"/>
  </svg>

  <!-- Santa Hat (scaled and positioned to sit on top of the circle) -->
  <svg x="84" y="-35" width="270" height="270" viewBox="0 0 512 512">
    <rect x="7.837" y="323.406" fill="#FFFFFF" width="426.475" height="104.166"/>
    <rect x="368.849" y="323.406" fill="#E6E6E6" width="65.463" height="104.166"/>
    <path fill="#BC052F" d="M412.249,167.718c-5.22-6.627-8.846-14.562-10.302-23.237H171.441L37.249,323.402h367.649l-61.986-82.649L412.249,167.718z"/>
    <polygon fill="#D80027" points="270.702,144.478 171.436,144.478 37.251,323.406 404.898,323.406"/>
    <polygon fill="#FFFFFF" points="171.436,144.478 37.251,323.406 58.671,323.406 192.857,144.478"/>
    <polygon fill="#BC052F" points="270.702,144.478 237.787,144.478 371.984,323.406 404.898,323.406"/>
    <circle fill="#FFFFFF" cx="452.692" cy="135.899" r="51.472"/>
    <path fill="#E6E6E6" d="M452.693,84.431c-3.764,0-7.428,0.415-10.962,1.182c23.158,5.025,40.51,25.626,40.51,50.289c0,24.664-17.351,45.264-40.51,50.289c3.534,0.767,7.198,1.182,10.962,1.182c28.426,0,51.471-23.044,51.471-51.471S481.119,84.431,452.693,84.431z"/>
    <path d="M452.692,76.594c-32.702,0-59.307,26.605-59.307,59.307s26.605,59.307,59.307,59.307c32.703,0,59.308-26.605,59.308-59.307S485.395,76.594,452.692,76.594z M452.692,179.535c-24.059,0-43.634-19.574-43.634-43.634s19.574-43.634,43.634-43.634s43.635,19.574,43.635,43.634S476.752,179.535,452.692,179.535z"/>
    <path d="M353.152,241.348l51.4-54.14l-11.367-10.791l-49.57,52.214l-57.235-76.314h95.008v-15.673H167.522L33.33,315.565H0v119.84h442.146v-119.84h-33.33L353.152,241.348z M175.359,152.316h91.428l122.438,163.25H52.922L175.359,152.316z M426.473,419.732h-45.252v-37.3h-15.673v37.3h-45.251v-37.3h-15.673v37.3h-45.251v-37.3h-15.673v37.3h-45.251v-37.3h-15.673v37.3H137.52v-37.3h-15.673v37.3H76.598v-37.3H60.925v37.3H15.673v-88.493h410.8V419.732z"/>
  </svg>

</svg>